<?xml version="1.0" standalone="no"?>
<!DOCTYPE svg PUBLIC "-//W3C//DTD SVG 20010904//EN"
 "http://www.w3.org/TR/2001/REC-SVG-20010904/DTD/svg10.dtd">
<svg version="1.0" xmlns="http://www.w3.org/2000/svg"
 width="1024.000000pt" height="1024.000000pt" viewBox="0 0 1024.000000 1024.000000"
 preserveAspectRatio="xMidYMid meet">
<metadata>
Created by potrace 1.11, written by Peter Selinger 2001-2013
</metadata>
<g transform="translate(0.000000,1024.000000) scale(0.100000,-0.100000)"
fill="#000000" stroke="none">
<path d="M4935 10233 c-216 -19 -485 -93 -665 -183 -96 -48 -264 -153 -290
-180 -3 -3 -25 -21 -50 -40 -331 -255 -584 -645 -676 -1045 -21 -92 -21 -93
-29 -155 -4 -29 -9 -62 -13 -74 -3 -12 -6 -820 -7 -1796 -2 -1859 -2 -1850 41
-2064 52 -256 190 -544 371 -769 107 -133 307 -315 457 -417 139 -94 409 -210
584 -251 61 -15 100 -21 232 -39 64 -8 437 -6 495 3 17 3 46 8 65 11 220 34
488 134 669 248 175 110 373 284 504 446 256 313 413 745 412 1132 l0 65 -880
1 c-668 1 -887 4 -910 13 -49 20 -96 61 -111 97 -20 47 -20 371 0 417 17 41
50 71 101 93 37 16 108 18 920 18 l880 1 0 320 0 320 -880 1 c-810 0 -883 2
-920 18 -22 9 -50 27 -64 39 -45 42 -51 74 -51 267 0 200 5 220 63 264 66 51
35 49 972 50 l880 1 0 319 0 319 -885 2 c-620 1 -893 4 -911 12 -37 16 -88 61
-104 94 -18 34 -21 371 -4 416 16 42 72 89 125 103 37 11 232 13 914 13 l868
0 -4 101 c-2 56 -6 115 -8 131 -3 17 -8 53 -11 80 -8 57 -64 295 -73 310 -4 6
-7 15 -8 20 -4 28 -70 179 -111 255 -47 87 -139 231 -170 266 -10 10 -35 39
-55 64 -157 193 -403 389 -628 500 -141 70 -345 135 -500 160 -36 5 -76 12
-90 16 -29 6 -386 12 -445 7z"/>
<path d="M1824 6389 c-112 -35 -179 -105 -209 -219 -9 -33 -11 -193 -9 -585 1
-297 5 -562 7 -590 3 -27 8 -81 11 -120 4 -38 9 -79 11 -90 2 -11 11 -69 20
-130 9 -60 20 -126 25 -145 5 -19 19 -78 30 -130 12 -52 25 -106 30 -120 4
-14 22 -72 40 -130 39 -126 85 -248 148 -390 62 -140 181 -370 208 -401 8 -8
14 -19 14 -23 0 -22 230 -346 320 -450 158 -184 327 -350 490 -481 289 -231
609 -417 931 -540 94 -36 329 -112 369 -119 14 -2 52 -11 85 -19 33 -8 87 -20
120 -26 33 -6 86 -16 118 -22 l57 -10 0 -340 0 -339 -577 -1 c-318 0 -589 -2
-603 -5 -84 -14 -167 -69 -211 -141 -40 -64 -48 -130 -45 -362 2 -213 3 -217
30 -273 33 -70 99 -130 172 -158 54 -20 71 -20 1717 -19 1630 0 1663 0 1713
20 71 27 137 88 171 157 27 57 27 58 29 276 2 285 -10 339 -98 423 -33 32
-104 69 -149 77 -13 3 -286 5 -606 5 l-583 1 0 340 c0 187 1 340 3 340 12 0
225 42 282 55 39 9 78 18 88 20 106 23 315 93 507 170 221 89 519 262 768 447
478 353 905 902 1127 1448 14 36 30 74 35 85 55 129 154 490 175 640 9 64 17
119 20 137 2 9 6 48 10 85 3 37 9 84 12 103 3 19 6 314 8 655 2 731 3 725 -95
823 -73 72 -121 84 -360 86 -113 1 -225 -1 -250 -6 -121 -22 -223 -122 -245
-242 -4 -21 -9 -311 -10 -644 -2 -334 -5 -618 -8 -632 -3 -14 -8 -54 -12 -90
-4 -36 -9 -74 -11 -85 -2 -11 -6 -35 -9 -53 -14 -97 -81 -326 -135 -462 -137
-350 -409 -728 -710 -990 -41 -36 -80 -69 -86 -75 -15 -13 -146 -106 -209
-148 -124 -83 -297 -174 -460 -240 -64 -27 -252 -86 -294 -93 -14 -3 -42 -9
-61 -14 -37 -10 -51 -12 -164 -30 -245 -39 -573 -32 -851 16 -387 68 -762 240
-1084 498 -141 113 -309 278 -406 401 -21 28 -42 52 -45 55 -12 11 -160 230
-160 237 0 3 -9 17 -19 32 -70 97 -216 428 -269 606 -29 98 -46 158 -47 170
-1 6 -7 35 -14 66 -12 59 -14 66 -30 174 -22 145 -24 193 -26 712 -1 293 -6
554 -10 580 -13 86 -67 167 -146 215 -54 34 -112 41 -323 42 -169 1 -218 -2
-262 -15z"/>
</g>
</svg>
