<svg version="1" xmlns="http://www.w3.org/2000/svg" width="170.667" height="170.667" viewBox="0 0 128.000000 128.000000"><path d="M55.9 2.2c-5.5 2.4-9.5 6.1-12.2 11.3-1.8 3.4-2.2 6.2-2.5 18.2-.3 10.1-.1 14.3.7 14.3.6 0 1.1.7 1.1 1.5s-.5 1.5-1.1 1.5c-2.1 0-.5 14.2 2 19.1 4.4 8.3 12.1 13.1 21.2 13 10.1 0 18.7-5.6 22.5-14.6 1.9-4.5 2.8-16.1 1.4-17-.6-.4-1-1.3-1-2.1s.4-1.2 1-.9c.6.4.9-4.5.7-13.7-.3-12.9-.5-14.8-2.7-19.2C82.8 5.3 75.7.8 65.9.4c-3.8-.1-7 .4-10 1.8zM29.5 26.5c-1.4 3-2.7 5.5-3 5.5-.2 0-1.5-1.8-2.8-4.1l-2.4-4-2.1 3.3c-1.9 3-2.6 3.3-6.9 3.3-3.7 0-4.8.4-5.1 1.8-.3 1.5.5 1.7 6.2 1.7 3.7 0 6.6-.4 6.6-1 0-1.7 1.8-1.1 2.4.7.4 1 1.5 2.9 2.5 4.3l1.9 2.4 2.9-5.8 2.8-5.7 2.1 2.6c1.3 1.6 2.6 2.4 3.6 2 1.4-.6 1.1-1.6-1.9-6.6-1.9-3.2-3.7-5.9-3.9-5.9-.2 0-1.6 2.5-2.9 5.5zM94.1 25.1c-2.5 5.1-2.6 6.5-.7 7.2.9.4 1.7-.2 2.1-1.4.8-2.5 2.1-1.7 4.4 2.9l1.9 3.7 2.2-3.8c1.6-2.7 2.6-3.5 3.3-2.8.6.6 3.9 1.1 7.3 1.1 5.3 0 6.2-.2 6-1.7-.2-1.4-1.4-1.8-5.2-2-3.7-.2-5.4-.8-6.8-2.5l-1.8-2.3-2.5 3.2-2.6 3.3-1.9-3.8c-3-5.7-3.5-5.8-5.7-1.1z"/><path d="M24.8 47.8c-1.2.2-1.4 1.8-1.2 8.2.4 13.8 4.9 24.2 13.8 32.2 4.4 4 12.8 8.6 17.3 9.4 3.9.7 4.1.9 3.9 6.1-.1 2.7.2 5.6.8 6.5 1.4 2.4.4 3-4.8 3.2-6.9.3-9.6 4.4-8.7 13.3.1 1 4.7 1.3 19.6 1.3H85v-4.9c0-6.3-3.2-9.9-8.8-9.9-2 0-4.2 0-4.8-.1-1.2-.1-1.5-3.1-.3-3.1.4 0 .9-2.5 1.1-5.5l.3-5.6 6.6-2.3c16.8-5.9 27.7-21.3 28-39.7.1-4.1.1-7.9 0-8.4 0-.6-2.2-.9-4.8-.8-2.7.1-6 .2-7.4.2-2.5.1-2.5.3-2.6 7.5-.1 5.2-.8 8.9-2.3 12.3C83.1 83.3 64.8 89 51 79.8c-8.2-5.4-12.2-13.3-12.4-24.5-.1-3.4-.5-6.5-.9-6.9-.7-.8-9.9-1.2-12.9-.6z"/></svg>