<svg height="512pt" viewBox="-29 0 512 512" width="512pt" xmlns="http://www.w3.org/2000/svg"><path d="m322.371094 97.28125c0-49.585938-40.195313-89.78125-89.777344-89.78125-49.585938 0-89.78125 40.195312-89.78125 89.78125v107.71875h179.558594zm0 0" fill="#e0e0e2"/><path d="m142.8125 205v23.554688c0 49.582031 40.195312 89.777343 89.78125 89.777343 49.582031 0 89.777344-40.195312 89.777344-89.777343v-23.554688zm0 0" fill="#79787d"/><path d="m288.652344 460.835938c5.859375 5.859374 9.144531 9.144531 15 15v28.664062h-142.117188v-28.664062c5.855469-5.855469 9.140625-9.140626 15-15zm0 0" fill="#79787d"/><path d="m347.84375 198.421875v31.667969c0 63.769531-52.066406 115.613281-115.921875 115.246094-63.597656-.367188-114.578125-52.921876-114.578125-116.515626v-30.398437h-45v30.828125c0 81.929688 61.484375 149.488281 140.828125 159.074219v72.511719h38.84375v-72.511719c79.34375-9.585938 140.828125-77.144531 140.828125-159.074219v-30.828125zm0 0" fill="#d7fc7e"/><path d="m247.59375 8.753906c-4.878906-.820312-9.890625-1.253906-15-1.253906-49.585938 0-89.78125 40.195312-89.78125 89.78125v107.71875h30v-107.71875c0-44.472656 32.339844-81.386719 74.78125-88.527344zm0 0" fill="#acabb1"/><path d="m172.8125 228.554688v-23.554688h-30v23.554688c0 49.582031 40.195312 89.777343 89.78125 89.777343 5.109375 0 10.121094-.433593 15-1.253906-42.441406-7.140625-74.78125-44.050781-74.78125-88.523437zm0 0" fill="#575759"/><path d="m206.535156 460.835938h-30c-5.859375 5.859374-9.144531 9.144531-15 15v28.664062h30v-28.664062c5.855469-5.855469 9.140625-9.140626 15-15zm0 0" fill="#575759"/><path d="m102.34375 229.25v-30.828125h-30v30.828125c0 81.929688 61.484375 149.488281 140.828125 159.074219v72.511719h30v-72.511719c-79.34375-9.585938-140.828125-77.144531-140.828125-159.074219zm0 0" fill="#55e072"/><path d="m150.3125 97.277344c0-45.367188 36.910156-82.277344 82.28125-82.277344 45.367188 0 82.277344 36.910156 82.277344 82.277344v87.722656h15v-87.722656c0-53.636719-43.636719-97.277344-97.277344-97.277344s-97.28125 43.640625-97.28125 97.277344v87.722656h15zm0 0"/><path d="m232.59375 325.832031c53.640625 0 97.277344-43.640625 97.277344-97.277343v-31.054688h-194.558594v31.054688c0 53.636718 43.640625 97.277343 97.28125 97.277343zm-82.28125-113.332031h164.558594v16.054688c0 45.367187-36.910156 82.277343-82.277344 82.277343-45.371094 0-82.28125-36.910156-82.28125-82.277343zm0 0"/><path d="m173.425781 453.335938-19.394531 19.394531v39.269531h157.121094v-39.269531l-19.394532-19.394531zm122.726563 43.664062h-127.117188v-18.058594l10.605469-10.605468h105.90625l10.605469 10.605468zm0 0"/><path d="m171.097656 145.992188h15v15h-15zm0 0"/><path d="m171.097656 172.492188h15v15h-15zm0 0"/><path d="m198.097656 145.992188h15v15h-15zm0 0"/><path d="m198.097656 172.492188h15v15h-15zm0 0"/><path d="m225.097656 145.992188h15v15h-15zm0 0"/><path d="m225.097656 172.492188h15v15h-15zm0 0"/><path d="m252.097656 145.992188h15v15h-15zm0 0"/><path d="m252.097656 172.492188h15v15h-15zm0 0"/><path d="m279.097656 145.992188h15v15h-15zm0 0"/><path d="m279.097656 172.492188h15v15h-15zm0 0"/><path d="m171.097656 91.5h15v15h-15zm0 0"/><path d="m171.097656 118h15v15h-15zm0 0"/><path d="m198.097656 91.5h15v15h-15zm0 0"/><path d="m198.097656 118h15v15h-15zm0 0"/><path d="m225.097656 91.5h15v15h-15zm0 0"/><path d="m225.097656 118h15v15h-15zm0 0"/><path d="m252.097656 91.5h15v15h-15zm0 0"/><path d="m252.097656 118h15v15h-15zm0 0"/><path d="m279.097656 91.5h15v15h-15zm0 0"/><path d="m279.097656 118h15v15h-15zm0 0"/><path d="m171.097656 63.507812h15v15h-15zm0 0"/><path d="m198.097656 37.007812h15v15h-15zm0 0"/><path d="m198.097656 63.507812h15v15h-15zm0 0"/><path d="m225.097656 37.007812h15v15h-15zm0 0"/><path d="m225.097656 63.507812h15v15h-15zm0 0"/><path d="m252.097656 37.007812h15v15h-15zm0 0"/><path d="m252.097656 63.507812h15v15h-15zm0 0"/><path d="m279.097656 63.507812h15v15h-15zm0 0"/><path d="m101.917969 113.4375 14.40625 24.859375 12.976562-7.519531-28.351562-48.925782-24.703125 49.375-19.753906-35.851562-16.109376 26.246094h-40.382812v15h48.777344l7.015625-11.433594 21.097656 38.285156zm0 0"/><path d="m412.214844 113.09375-14.96875-20-18.335938 27.296875-22.671875-39.121094-19.917969 44.011719 13.664063 6.1875 7.898437-17.449219 20.085938 34.664063 19.9375-29.671875 6.796875 9.082031h48.335937v-15zm0 0"/><path d="m340.34375 230.089844c0 59.457031-48.292969 107.746094-107.746094 107.746094-.210937 0-.425781 0-.632812 0-59.066406-.339844-107.121094-49.242188-107.121094-109.015626v-37.898437h-60v38.328125c0 82.542969 60.085938 152.582031 140.828125 165.589844v45.996094h15v-59.160157l-6.601563-.796875c-76.519531-9.246094-134.226562-74.433594-134.226562-151.628906v-23.328125h30v22.898437c0 67.996094 54.746094 123.628907 122.035156 124.015626 68.691406.292968 123.464844-55.289063 123.464844-122.746094v-24.167969h30v23.328125c0 77.195312-57.707031 142.382812-134.226562 151.628906l-6.601563.796875v59.160157h15v-45.996094c80.742187-13.007813 140.828125-83.046875 140.828125-165.589844v-38.328125h-60zm0 0"/><g fill="#fff"><path d="m253.066406 374.394531-2.097656-14.855469c30.230469-4.269531 58.21875-19.222656 78.8125-42.101562 10.898438-12.109375 19.339844-25.933594 25.089844-41.09375l14.027344 5.316406c-6.414063 16.90625-15.824219 32.316406-27.96875 45.8125-22.945313 25.496094-54.148438 42.160156-87.863282 46.921875zm119.210938-102.714843-14.375-4.289063c1.347656-4.511719 2.460937-9.152344 3.308594-13.785156l14.753906 2.699219c-.945313 5.167968-2.1875 10.339843-3.6875 15.375zm5.210937-25.808594-14.914062-1.625c.511719-4.675782.769531-9.4375.769531-14.15625h15c0 5.257812-.289062 10.566406-.855469 15.78125zm0 0"/><path d="m232.59375 300.832031v-15c15.082031 0 29.332031-5.839843 40.121094-16.441406l10.515625 10.699219c-13.613281 13.375-31.597657 20.742187-50.636719 20.742187zm57.957031-29.132812-12.019531-8.972657c2.648438-3.550781 4.882812-7.402343 6.640625-11.445312l13.757813 5.972656c-2.21875 5.105469-5.035157 9.96875-8.378907 14.445313zm12.011719-24.996094-14.515625-3.769531c1.101563-4.257813 1.714844-8.664063 1.8125-13.097656l14.996094.328124c-.125 5.59375-.894531 11.15625-2.292969 16.539063zm0 0"/><path d="m282.097656 490.167969h-19.167968v-15h19.167968zm-29.167968 0h-15v-15h15zm-25 0h-15v-15h15zm0 0"/></g></svg>